<svg width="32" height="32" viewBox="0 0 32 32" fill="none" xmlns="http://www.w3.org/2000/svg">
<path d="M16 2.66663C12.4638 2.66663 9.07238 4.07138 6.5719 6.57187C4.07141 9.07235 2.66666 12.4637 2.66666 16C2.66666 19.5362 4.07141 22.9276 6.5719 25.428C9.07238 27.9285 12.4638 29.3333 16 29.3333C19.5362 29.3333 22.9276 27.9285 25.4281 25.428C27.9286 22.9276 29.3333 19.5362 29.3333 16C29.3333 12.4637 27.9286 9.07235 25.4281 6.57187C22.9276 4.07138 19.5362 2.66663 16 2.66663Z" fill="#29B6F6"/>
<path d="M22.6333 10L20.136 22.7507C20.136 22.7507 20.0287 23.3334 19.306 23.3334C18.922 23.3334 18.724 23.1507 18.724 23.1507L13.3147 18.662L10.668 17.328L7.27132 16.4247C7.27132 16.4247 6.66666 16.25 6.66666 15.75C6.66666 15.3334 7.28866 15.1347 7.28866 15.1347L21.4993 9.48938C21.4993 9.48938 21.9333 9.33271 22.25 9.33338C22.4447 9.33338 22.6667 9.41671 22.6667 9.66671C22.6667 9.83338 22.6333 10 22.6333 10Z" fill="white"/>
<path d="M15.3333 20.3366L13.0493 22.586C13.0493 22.586 12.95 22.6626 12.8173 22.666C12.7713 22.6673 12.722 22.66 12.6713 22.6373L13.314 18.6606L15.3333 20.3366Z" fill="#B0BEC5"/>
<path d="M19.9314 12.1307C19.8187 11.9841 19.6107 11.9574 19.464 12.0687L10.6667 17.3334C10.6667 17.3334 12.0707 21.2614 12.2847 21.9414C12.4994 22.622 12.6714 22.6381 12.6714 22.6381L13.314 18.6614L19.8687 12.5974C20.0154 12.4861 20.0427 12.2774 19.9314 12.1307Z" fill="#CFD8DC"/>
</svg>
