<svg width="32" height="32" viewBox="0 0 32 32" fill="none" xmlns="http://www.w3.org/2000/svg">
<path d="M16 2.66663C12.4638 2.66663 9.07242 4.07138 6.57193 6.57187C4.07144 9.07235 2.66669 12.4637 2.66669 16C2.66669 19.5362 4.07144 22.9276 6.57193 25.4281C9.07242 27.9285 12.4638 29.3333 16 29.3333C19.5362 29.3333 22.9276 27.9285 25.4281 25.4281C27.9286 22.9276 29.3334 19.5362 29.3334 16C29.3334 12.4637 27.9286 9.07235 25.4281 6.57187C22.9276 4.07138 19.5362 2.66663 16 2.66663Z" fill="#1976D2"/>
<path d="M23.958 12.0274C23.9887 11.9267 24.0033 11.8334 23.9993 11.75C23.9893 11.5087 23.8233 11.3334 23.4327 11.3334H21.6873C21.2467 11.3334 21.0433 11.6 20.9247 11.8674C20.9247 11.8674 19.8367 14.1067 18.5827 15.5834C18.176 16.0107 17.9693 16 17.7493 16C17.6313 16 17.3333 15.8574 17.3333 15.466V12.0094C17.3333 11.5467 17.218 11.3334 16.8453 11.3334H13.746C13.4747 11.3334 13.3333 11.5467 13.3333 11.7607C13.3333 12.2054 13.932 12.312 14 13.558V15.9734C14 16.56 13.898 16.6667 13.678 16.6667C13.0847 16.6667 11.9167 14.6667 11.1347 12.0454C10.9653 11.5294 10.796 11.3334 10.3553 11.3334H8.59333C8.08467 11.3334 8 11.5827 8 11.8494C8 12.33 8.4 14.9287 10.5833 17.9167C12.1667 20.0834 14.2527 21.3334 16.0993 21.3334C17.218 21.3334 17.3327 21.0487 17.3327 20.604V18.6227C17.3333 18.0887 17.4553 18 17.8113 18C18.0653 18 18.5833 18.1667 19.5833 19.3334C20.7367 20.6787 20.946 21.3334 21.6073 21.3334H23.3527C23.758 21.3334 23.9907 21.1634 24 20.8334C24.002 20.7494 23.99 20.6554 23.9627 20.5507C23.8333 20.1667 23.24 19.228 22.5 18.3334C22.09 17.838 21.6853 17.3474 21.4993 17.0807C21.3747 16.9067 21.3273 16.784 21.3333 16.6667C21.3393 16.5434 21.4033 16.426 21.4993 16.262C21.482 16.262 23.738 13.0947 23.958 12.0274Z" fill="white"/>
</svg>
