<svg width="32" height="32" viewBox="0 0 32 32" fill="none" xmlns="http://www.w3.org/2000/svg">
<path d="M3.24536 28.8687L5.04136 22.312C3.93336 20.3934 3.35069 18.216 3.35136 15.986C3.35469 9.00937 9.03203 3.33337 16.0094 3.33337C19.3954 3.33471 22.5727 4.65271 24.9627 7.04404C27.352 9.43604 28.668 12.6147 28.6667 15.996C28.664 22.9727 22.9854 28.6494 16.0094 28.6494H16.004C13.886 28.6487 11.804 28.1174 9.95536 27.1087L3.24536 28.8687Z" fill="white"/>
<path d="M3.24533 29.202C3.15733 29.202 3.072 29.1673 3.00867 29.1033C2.92533 29.0187 2.89267 28.8953 2.924 28.7813L4.68333 22.3573C3.59267 20.42 3.01733 18.22 3.01867 15.9867C3.02133 8.82533 8.84867 3 16.0093 3C19.4827 3.00133 22.746 4.354 25.1987 6.80867C27.6513 9.264 29.0013 12.5267 29 15.996C28.9973 23.1567 23.1693 28.9827 16.0093 28.9827C13.8833 28.982 11.78 28.4573 9.91333 27.4647L3.33 29.1907C3.302 29.1987 3.274 29.202 3.24533 29.202Z" fill="white"/>
<path d="M16.0093 3.33329C19.3953 3.33463 22.5726 4.65263 24.9626 7.04396C27.352 9.43596 28.668 12.6146 28.6666 15.996C28.664 22.9726 22.9853 28.6493 16.0093 28.6493H16.004C13.886 28.6486 11.804 28.1173 9.95531 27.1086L3.24531 28.8686L5.04131 22.312C3.93331 20.3933 3.35064 18.216 3.35131 15.986C3.35464 9.00929 9.03198 3.33329 16.0093 3.33329ZM16.0093 2.66663C8.66531 2.66663 2.68798 8.64129 2.68464 15.986C2.68398 18.2306 3.25064 20.4426 4.32531 22.4006L2.60198 28.6933C2.53931 28.9233 2.60331 29.1686 2.77131 29.338C2.89798 29.466 3.06931 29.536 3.24531 29.536C3.30198 29.536 3.35864 29.5286 3.41464 29.514L9.87264 27.8206C11.758 28.7993 13.8713 29.316 16.004 29.3166C23.3533 29.3166 29.3306 23.3413 29.334 15.9966C29.3353 12.4373 27.9506 9.09063 25.4353 6.57329C22.9186 4.05529 19.5713 2.66796 16.0093 2.66663Z" fill="#CFD8DC"/>
<path d="M23.4506 8.5547C21.464 6.5667 18.8233 5.47137 16.0126 5.4707C10.21 5.4707 5.49064 10.188 5.48798 15.9867C5.48731 17.974 6.04331 19.9087 7.09664 21.584L7.34731 21.982L6.28398 25.8627L10.266 24.8187L10.6506 25.0467C12.2653 26.0054 14.1173 26.512 16.0053 26.5127H16.0093C21.808 26.5127 26.5273 21.7947 26.5293 15.9954C26.53 13.1854 25.4373 10.5427 23.4506 8.5547Z" fill="#40C351"/>
<path fill-rule="evenodd" clip-rule="evenodd" d="M12.8453 10.6967C12.6087 10.17 12.3593 10.1594 12.1333 10.15C11.9487 10.142 11.738 10.1427 11.5273 10.1427C11.3167 10.1427 10.974 10.222 10.684 10.5387C10.394 10.8554 9.57666 11.62 9.57666 13.176C9.57666 14.732 10.71 16.236 10.868 16.4467C11.026 16.6574 13.056 19.9527 16.2707 21.2207C18.942 22.274 19.486 22.0647 20.066 22.012C20.646 21.9594 21.9373 21.2474 22.2007 20.5087C22.464 19.77 22.464 19.1374 22.3853 19.0054C22.306 18.8734 22.0953 18.7947 21.7793 18.636C21.4633 18.4774 19.908 17.7127 19.618 17.6074C19.328 17.502 19.1173 17.4494 18.906 17.766C18.6953 18.082 18.0893 18.7947 17.9047 19.0054C17.72 19.2167 17.5353 19.2434 17.2193 19.0847C16.9033 18.926 15.8847 18.5927 14.676 17.5154C13.736 16.6774 13.1013 15.642 12.9167 15.3254C12.732 15.0094 12.8967 14.838 13.0553 14.68C13.1973 14.538 13.3713 14.3107 13.53 14.126C13.688 13.9414 13.7407 13.8094 13.846 13.5987C13.9513 13.3874 13.8987 13.2027 13.8193 13.0447C13.7413 12.886 13.1267 11.322 12.8453 10.6967Z" fill="white"/>
</svg>
